<?xml version="1.0" standalone="no"?>
<!DOCTYPE svg PUBLIC "-//W3C//DTD SVG 20010904//EN"
 "http://www.w3.org/TR/2001/REC-SVG-20010904/DTD/svg10.dtd">
<svg version="1.0" xmlns="http://www.w3.org/2000/svg"
 width="246.000000pt" height="190.000000pt" viewBox="0 0 246.000000 190.000000"
 preserveAspectRatio="xMidYMid meet">

<g transform="translate(0.000000,190.000000) scale(0.100000,-0.100000)"
fill="#000000" stroke="none">
<path d="M0 955 l0 -945 1230 0 1230 0 0 945 0 945 -1230 0 -1230 0 0 -945z
m1350 743 l0 -23 19 25 19 24 89 -12 c48 -6 140 -21 203 -32 63 -11 162 -25
219 -30 57 -6 131 -19 165 -29 33 -11 90 -24 126 -31 81 -15 100 -25 100 -54
0 -18 -8 -25 -39 -35 -21 -6 -45 -9 -53 -6 -8 3 -33 2 -56 -3 -22 -5 -44 -7
-47 -4 -8 9 -39 11 -185 12 -74 0 -148 -3 -165 -8 -29 -9 -29 -9 22 -20 29 -7
66 -9 83 -6 18 4 36 1 45 -6 15 -12 75 -16 140 -8 24 2 29 -1 27 -14 -2 -15 3
-17 43 -12 38 6 45 4 45 -10 0 -9 7 -19 15 -22 8 -4 12 -10 9 -15 -3 -6 -8
-41 -10 -79 -3 -51 -1 -70 8 -70 9 0 9 -3 1 -11 -9 -9 -8 -16 4 -27 10 -11 12
-17 4 -20 -6 -2 -9 -8 -5 -13 8 -14 32 -11 36 6 2 9 8 12 17 6 22 -14 4 -53
-23 -49 -13 1 -31 -3 -40 -11 -18 -15 -22 -41 -6 -41 6 0 10 -4 10 -10 0 -5
-7 -10 -16 -10 -11 0 -15 -6 -11 -20 3 -11 1 -20 -4 -20 -16 0 -10 -38 7 -44
13 -5 14 -9 4 -21 -10 -12 -9 -16 4 -21 23 -9 20 -23 -4 -17 -11 3 -20 0 -20
-6 0 -6 7 -11 16 -11 15 0 14 -3 -1 -27 -18 -28 -18 -28 2 -10 31 27 36 20 10
-15 -13 -18 -27 -50 -30 -71 -7 -46 -55 -97 -91 -97 -24 0 -43 -29 -38 -57 2
-7 -1 -13 -7 -13 -5 0 -14 -13 -20 -30 -6 -18 -17 -30 -27 -30 -21 0 -54 -28
-54 -46 0 -11 -23 -24 -43 -24 -11 0 -40 -30 -61 -64 -15 -23 -16 -30 -5 -37
8 -5 24 -7 37 -4 l23 6 -22 -22 c-12 -12 -36 -26 -53 -30 -70 -16 54 -9 250
16 229 29 214 28 214 16 0 -9 -38 -24 -54 -22 -13 3 -36 -20 -30 -30 10 -17
-29 -23 -41 -6 -15 21 -25 22 -25 2 0 -7 -7 -18 -16 -23 -10 -6 45 -11 151
-16 93 -3 169 -5 171 -3 4 4 34 306 34 350 l0 37 -65 0 c-51 0 -65 3 -65 15 0
13 47 19 138 15 10 -1 3 -123 -16 -297 l-17 -146 -125 2 c-69 1 -318 6 -555
11 -236 5 -545 12 -685 15 -200 4 -463 12 -655 20 -16 0 -18 -57 -3 -66 7 -5
40 -9 73 -10 33 -1 50 -4 38 -6 -18 -4 -23 -11 -23 -38 l0 -33 98 -6 c53 -3
342 -10 642 -16 300 -6 577 -12 615 -15 39 -2 191 -6 338 -9 148 -2 271 -7
274 -10 21 -21 -59 -22 -512 -10 -275 7 -657 14 -850 15 -192 1 -411 4 -485 8
l-135 6 3 52 4 53 -172 2 -172 3 26 38 26 38 -26 10 c-15 5 -24 12 -21 15 3 3
77 5 164 5 97 -1 153 2 144 8 -7 5 -10 14 -7 20 4 6 0 14 -8 17 -23 9 -19 24
7 25 13 1 6 5 -17 10 -56 13 -66 25 -66 78 l-1 46 -70 -75 c-39 -41 -75 -74
-81 -72 -6 2 -8 -3 -5 -11 3 -8 -3 -13 -14 -14 -17 -2 -15 4 13 40 18 23 40
49 49 57 9 8 33 37 54 63 29 36 41 45 47 35 6 -8 8 3 5 31 -3 24 -1 54 3 67 6
14 5 26 0 29 -13 8 -13 205 0 205 6 0 10 7 10 16 0 8 -5 12 -10 9 -6 -4 -10
38 -10 119 0 90 3 125 13 129 9 3 9 8 -2 21 -13 15 -13 19 0 27 11 7 11 11 2
17 -9 5 -11 23 -7 53 4 34 3 41 -6 29 -9 -12 -10 -12 -6 5 16 63 18 78 9 84
-6 3 -13 50 -16 103 -6 87 -5 99 11 107 34 18 317 70 442 81 175 15 407 40
460 50 25 4 64 8 88 9 37 1 42 -2 42 -21z m892 -287 c-6 -32 -20 -51 -39 -51
-9 0 -11 5 -6 13 15 24 14 50 -2 43 -25 -9 -18 28 8 39 28 13 46 -7 39 -44z
m-22 -320 c0 -5 -3 -17 -6 -25 -6 -15 -8 -15 -19 1 -10 13 -10 20 -2 25 16 10
27 10 27 -1z m19 -638 c0 -44 -2 -53 -17 -53 -9 0 -24 5 -32 10 -13 9 -12 12
5 25 10 8 20 25 20 38 1 12 2 33 4 47 2 23 3 23 10 5 5 -11 9 -44 10 -72z
m-119 17 c0 -5 -7 -10 -16 -10 -8 0 -12 5 -9 10 3 6 10 10 16 10 5 0 9 -4 9
-10z m-223 -106 c-3 -3 -12 -4 -19 -1 -8 3 -5 6 6 6 11 1 17 -2 13 -5z m318
-54 c-3 -5 -13 -10 -21 -10 -8 0 -12 5 -9 10 3 6 13 10 21 10 8 0 12 -4 9 -10z
m-245 -138 l55 -8 -74 -7 c-41 -4 -237 -3 -435 3 -199 6 -489 15 -646 20 -215
6 -121 7 380 4 366 -2 690 -7 720 -12z m417 -18 c-3 -3 -12 -4 -19 -1 -8 3 -5
6 6 6 11 1 17 -2 13 -5z"/>
<path d="M375 1480 c-3 -5 -1 -10 4 -10 6 0 11 5 11 10 0 6 -2 10 -4 10 -3 0
-8 -4 -11 -10z"/>
<path d="M1845 1449 c-4 -6 -4 -13 -1 -16 3 -4 6 -1 6 6 0 7 4 10 9 6 5 -3 12
-1 16 5 3 5 -1 10 -9 10 -8 0 -18 -5 -21 -11z"/>
<path d="M370 1384 c0 -8 5 -12 10 -9 6 3 10 10 10 16 0 5 -4 9 -10 9 -5 0
-10 -7 -10 -16z"/>
<path d="M340 1263 c0 -7 7 -13 15 -13 8 0 15 6 15 13 0 8 -7 14 -15 14 -8 0
-15 -6 -15 -14z"/>
<path d="M1320 1220 c-8 -5 -31 -10 -50 -10 -27 0 -36 -4 -36 -17 -2 -70 -16
-179 -23 -186 -5 -5 -54 -10 -107 -11 l-98 -1 -7 -30 c-12 -49 -17 -125 -7
-125 4 0 8 -9 8 -21 0 -20 5 -20 94 -18 67 2 99 -1 110 -10 20 -17 21 -35 1
-27 -18 7 -20 -15 -3 -32 9 -9 9 -12 0 -12 -7 0 -12 -11 -12 -25 0 -14 4 -25
9 -25 12 0 20 -59 9 -66 -4 -3 -8 3 -8 12 0 13 -3 15 -11 7 -6 -6 -9 -19 -7
-28 3 -16 15 -18 93 -18 139 1 133 -1 143 36 5 17 5 36 1 41 -5 5 -4 15 2 22
7 8 6 14 -2 20 -8 5 -4 13 12 26 15 11 18 16 7 12 -12 -4 -18 -1 -18 7 1 32
17 38 114 42 65 3 102 9 111 18 8 9 14 49 17 110 l4 95 -108 0 c-59 0 -111 4
-115 8 -4 4 -7 50 -6 102 2 93 1 95 -23 104 -32 13 -75 12 -94 0z"/>
<path d="M376 1169 c-11 -36 -13 -110 -2 -106 6 2 10 21 9 43 -2 22 2 41 9 46
10 6 10 10 1 19 -10 10 -13 9 -17 -2z"/>
<path d="M390 992 c-18 -14 -20 -20 -9 -24 8 -3 22 5 32 18 21 28 8 31 -23 6z"/>
<path d="M422 967 c-11 -13 -10 -16 8 -22 12 -4 27 -2 33 4 8 8 7 11 -5 11 -9
0 -18 5 -20 11 -2 7 -8 6 -16 -4z"/>
<path d="M453 932 c-33 -3 -49 -32 -17 -32 8 0 13 -4 10 -9 -3 -5 1 -12 10
-15 10 -4 14 -1 11 6 -2 7 3 18 11 24 23 17 10 29 -25 26z"/>
<path d="M411 851 c-7 -5 -12 -14 -10 -20 2 -6 10 -2 17 9 14 22 13 23 -7 11z"/>
<path d="M475 850 c3 -5 8 -10 11 -10 2 0 4 5 4 10 0 6 -5 10 -11 10 -5 0 -7
-4 -4 -10z"/>
<path d="M615 810 c3 -5 11 -10 16 -10 6 0 7 5 4 10 -3 6 -11 10 -16 10 -6 0
-7 -4 -4 -10z"/>
<path d="M962 811 c2 -7 7 -12 11 -12 12 1 9 15 -3 20 -7 2 -11 -2 -8 -8z"/>
<path d="M618 783 c6 -2 12 -9 12 -14 0 -9 -9 -11 -50 -11 -24 0 -24 0 -2 -5
14 -3 22 -10 19 -18 -3 -7 0 -18 6 -24 8 -8 5 -11 -13 -11 -13 0 -20 -3 -17
-7 4 -3 -1 -12 -11 -20 -13 -12 -14 -14 -2 -10 9 3 47 2 85 -2 38 -4 87 -4
107 -1 21 4 41 4 44 -1 8 -14 34 2 34 22 0 10 -10 27 -22 39 -12 11 -19 23
-15 26 4 4 -10 15 -29 26 -20 11 -39 16 -43 12 -3 -4 0 -9 7 -11 6 -3 12 -9
12 -15 0 -6 -7 -8 -14 -5 -10 4 -13 1 -10 -8 3 -8 13 -11 22 -8 15 4 15 3 2
-6 -12 -8 -19 -6 -32 9 -9 11 -21 20 -26 20 -6 0 -12 4 -14 10 -1 5 -16 11
-33 13 -16 3 -24 2 -17 0z"/>
<path d="M2101 764 c0 -11 3 -14 6 -6 3 7 2 16 -1 19 -3 4 -6 -2 -5 -13z"/>
<path d="M480 738 c0 -27 14 -29 26 -3 10 20 9 23 -7 22 -11 -1 -19 -9 -19
-19z"/>
<path d="M440 732 c6 -13 14 -21 18 -18 3 4 -2 14 -12 24 -18 16 -18 16 -6 -6z"/>
<path d="M395 730 c-3 -5 -3 -10 1 -10 4 0 0 -6 -10 -13 -18 -13 -18 -14 0
-21 18 -8 18 -8 -1 -16 -16 -7 -12 -9 18 -9 26 -1 37 3 37 14 0 8 -4 15 -10
15 -5 0 -10 11 -10 25 0 25 -14 33 -25 15z"/>
<path d="M515 691 c3 -6 -3 -14 -12 -20 -23 -14 -12 -14 24 0 22 8 24 12 13
19 -19 12 -33 13 -25 1z"/>
<path d="M435 640 c-3 -5 1 -10 9 -10 9 0 16 5 16 10 0 6 -4 10 -9 10 -6 0
-13 -4 -16 -10z"/>
<path d="M510 641 c0 -6 4 -12 8 -15 5 -3 9 1 9 9 0 8 -4 15 -9 15 -4 0 -8 -4
-8 -9z"/>
<path d="M630 640 c-9 -6 -10 -10 -3 -10 6 0 15 5 18 10 8 12 4 12 -15 0z"/>
<path d="M462 574 c2 -10 -3 -19 -9 -21 -7 -3 -13 2 -13 10 0 12 -4 13 -24 4
-13 -7 -22 -15 -20 -19 3 -5 0 -8 -5 -8 -6 0 -11 -5 -11 -11 0 -5 5 -7 10 -4
6 3 10 -1 10 -10 0 -8 -7 -18 -15 -21 -14 -6 -13 -8 1 -19 10 -7 27 -11 38 -9
12 3 15 2 8 -2 -18 -9 -4 -24 23 -24 12 0 26 7 29 16 9 22 8 24 -8 18 -8 -3
-17 -1 -20 5 -7 10 52 27 61 17 4 -3 1 -6 -6 -6 -7 0 -9 -5 -6 -10 9 -15 25
-2 25 21 0 12 -7 19 -19 19 -10 0 -22 7 -25 16 -9 22 -8 24 12 24 15 1 15 2
-2 15 -26 20 -38 19 -34 -1z"/>
<path d="M526 555 c-3 -9 0 -15 9 -15 16 0 20 16 6 24 -5 3 -11 -1 -15 -9z"/>
<path d="M1080 549 c0 -5 5 -7 10 -4 6 3 10 8 10 11 0 2 -4 4 -10 4 -5 0 -10
-5 -10 -11z"/>
<path d="M1121 523 c-6 -10 -11 -14 -11 -9 0 5 -7 3 -15 -4 -12 -10 -15 -10
-15 1 0 20 -23 -6 -25 -28 -2 -29 -15 -43 -39 -43 -17 0 -23 -5 -22 -17 1 -14
-5 -17 -26 -15 -35 3 -43 -12 -15 -31 12 -8 35 -26 50 -41 31 -29 47 -33 47
-12 0 27 28 29 227 21 40 -2 75 0 78 4 2 4 20 8 39 9 34 1 84 37 79 54 -4 11
15 10 37 -2 15 -8 20 -6 25 11 9 29 -11 41 -57 35 -36 -4 -52 7 -25 17 12 6
-20 11 -38 7 -64 -16 -76 -17 -81 -8 -3 5 -13 7 -22 3 -17 -6 -113 24 -123 39
-4 5 -15 6 -24 2 -13 -4 -16 -2 -11 9 8 21 -21 19 -33 -2z m44 -43 c-3 -5 0
-11 7 -11 7 -1 20 -2 28 -3 8 -1 21 3 28 8 9 7 16 5 21 -3 5 -7 11 -12 15 -12
19 3 26 0 26 -12 0 -8 10 -13 21 -13 12 1 24 -4 26 -11 3 -9 -4 -10 -29 -2
-18 5 -47 9 -64 9 -34 0 -85 22 -104 45 -10 12 -9 15 9 15 12 0 19 -4 16 -10z
m-30 -30 c8 -13 -15 -13 -35 0 -12 8 -11 10 7 10 12 0 25 -4 28 -10z m295 -5
c0 -12 -19 -12 -23 0 -4 9 -1 12 9 8 7 -3 14 -7 14 -8z m98 -15 c3 -9 -1 -11
-12 -7 -10 4 -24 7 -32 7 -9 0 -12 4 -9 10 8 13 48 6 53 -10z m-68 -20 c0 -5
-5 -10 -11 -10 -5 0 -7 5 -4 10 3 6 8 10 11 10 2 0 4 -4 4 -10z"/>
<path d="M1550 410 c0 -5 5 -10 11 -10 5 0 7 5 4 10 -3 6 -8 10 -11 10 -2 0
-4 -4 -4 -10z"/>
<path d="M700 369 c0 -5 5 -7 10 -4 6 3 10 8 10 11 0 2 -4 4 -10 4 -5 0 -10
-5 -10 -11z"/>
<path d="M481 366 c11 -9 69 -15 64 -6 -3 6 -20 10 -37 10 -17 0 -29 -2 -27
-4z"/>
<path d="M568 353 c7 -3 16 -2 19 1 4 3 -2 6 -13 5 -11 0 -14 -3 -6 -6z"/>
<path d="M615 349 c-4 -5 9 -9 28 -9 19 0 50 -3 68 -6 27 -4 30 -3 17 5 -22
15 -106 22 -113 10z"/>
<path d="M1086 309 c6 -11 31 -12 37 -1 3 4 -6 8 -19 8 -13 1 -21 -2 -18 -7z"/>
<path d="M1193 303 c15 -2 39 -2 55 0 15 2 2 4 -28 4 -30 0 -43 -2 -27 -4z"/>
<path d="M1288 303 c7 -3 16 -2 19 1 4 3 -2 6 -13 5 -11 0 -14 -3 -6 -6z"/>
<path d="M1348 303 c7 -3 16 -2 19 1 4 3 -2 6 -13 5 -11 0 -14 -3 -6 -6z"/>
<path d="M156 248 c-14 -18 -24 -33 -23 -35 1 -1 14 -4 29 -7 22 -4 32 2 52
29 33 42 32 45 -3 45 -21 0 -37 -9 -55 -32z"/>
<path d="M246 246 c-32 -43 -32 -46 2 -46 19 0 35 10 55 34 15 19 27 37 27 40
0 4 -13 6 -29 6 -21 0 -36 -9 -55 -34z"/>
<path d="M315 234 c-19 -30 -17 -35 13 -27 15 3 22 13 22 29 0 31 -13 30 -35
-2z"/>
</g>
</svg>
